<?xml version="1.0" encoding="utf-8"?>
<!-- Generator: Adobe Illustrator 23.0.0, SVG Export Plug-In . SVG Version: 6.00 Build 0)  -->
<svg version="1.1" id="Capa_1" xmlns="http://www.w3.org/2000/svg" xmlns:xlink="http://www.w3.org/1999/xlink" x="0px" y="0px"
	 viewBox="0 0 101.7 79.9" style="enable-background:new 0 0 101.7 79.9;" xml:space="preserve">
<style type="text/css">
	.st0{display:none;}
	.st1{display:inline;fill:#BCBCBC;stroke:#000000;stroke-width:8;stroke-miterlimit:10;}
	.st2{display:inline;fill:#D1D1D1;}
	.st3{display:inline;fill:#DDDDDD;}
	.st4{display:inline;fill:#E8E8E8;}
	.st5{display:inline;fill:#E5E5E5;}
	.st6{display:inline;fill:#BCBCBC;}
	.st7{display:inline;fill:#EAEAEA;}
	.st8{display:inline;fill:#C6C6C6;}
	.st9{display:inline;fill:#AFAFAF;}
	.st10{display:inline;fill:#9B9B9B;}
	.st11{display:inline;fill:#AAAAAA;}
	.st12{fill:#E6E6E6;stroke:#000000;stroke-width:4;stroke-miterlimit:10;}
	.st13{fill:#474747;}
	.st14{fill:#E6E6E6;}
	.st15{fill:#939393;}
</style>
<g class="st0">
	
		<image style="display:inline;overflow:visible;enable-background:new    ;" width="480" height="462" xlink:href="C:\Users\mriba\Desktop\d0dea3c798358daf3dd60ba12b9e5e75.jpg"  transform="matrix(0.4549 0.144 -0.144 0.4549 -14.7935 -74.8255)">
	</image>
</g>
<g>
	<g id="Capa_1_copia" class="st0">
		<path class="st1" d="M28.8,15.8c-7,4.9-8.5,9.9-8.6,10.8c0,0-7.1,4.1-8,5.5c-1,1.4-3.3,4-3.3,4l-0.6,4.7l0.9,1.2
			c0,0-2.3,1.1-2.8,2c-0.4,1,0,7.6,0,7.6l3.1,5.6l2.2,2.9l0.8,2.3l4.2,6.1h1.8l2.8,3.1l15.5,2.3l17.6-1.3l16.7-2.3l10.5-3l13.2-13.8
			l0.9-5.5L92,39.3l0,0L91,37l-1.4-3.7L86,27.7l-3.8-1.2l-5.1-4.2l-9.3-5.7c0,0-4.2-4.7-4.8-5.4c-0.7-0.6-15-5.1-16.1-5.1
			c-1.1,0-10.4,6.7-10.4,6.7S35.8,10.8,28.8,15.8z"/>
	</g>
	<g class="st0">
		<polygon class="st2" points="82.2,26.5 86,27.7 89.7,33.3 91,37 86.9,35.6 80.6,30.7 78.5,28.9 81.5,26.2 		"/>
		<polygon class="st3" points="67.8,16.6 77.1,22.4 82.2,26.5 79.7,28.9 71.9,26.9 62.6,27.1 58.3,26.2 46.3,21.7 52.1,18.7 		"/>
		<path class="st4" d="M30.3,42.5l4-2.5l3.2-2.2l15.4-6.9l4.9-1.5l3.2-3.1c0,0-1.5-1.9-4.2-2.6c-2.7-0.7-8-1.9-8-1.9l-12.1,6.1
			L30.3,39l-3.2,4.3L30.3,42.5z"/>
		<path class="st5" d="M14.3,48.7l-1.8,13.6l5.9,4.7H24l5.6,3.2l8.1-9.7c0,0-4.7-11.9-7.6-14c-0.6-2.5-1.6-2.5-1.6-2.5L27,43.2H13.9
			L14.3,48.7z"/>
		<path class="st6" d="M46.3,19.2l2.5,2.6c0,0-7,3.4-10.1,6.1c-3,2.9-6.1,7.8-7.8,11.4l-2.2,2.5l-1.6,1.5l4.7-14.6l11-8.5L46.3,19.2
			z"/>
		<path class="st7" d="M20.2,26.5c0,0-7.1,4.1-8,5.5c-1,1.4-3.3,4-3.3,4l-0.6,4.7l0.9,1.2c0,0-2.3,1.1-2.8,2c-0.4,1,0,7.6,0,7.6
			l3.1,5.6l3.7-5c0,0,2.2-2.9,3.3-3.5s10.7-5.2,10.7-5.2l-1.6-11.6L20.2,26.5z"/>
		<path class="st3" d="M36.5,12.8c0,0-0.7-1.9-7.7,3s-8.5,9.9-8.6,10.8c-0.1,0.9,1.2,0.2,3.2,7.1s3.7,9.6,3.7,9.6s4.6-11.7,7.4-15.4
			s11.9-8.7,11.9-8.7L36.5,12.8z"/>
		<polygon class="st8" points="15.3,49.4 14.8,53.1 13.8,54.6 12.4,62.3 11.6,60 9.4,57.1 12.3,50.7 		"/>
		<polygon class="st8" points="12.4,62.3 16.6,68.4 18.4,68.4 21.2,71.5 36.7,73.8 29.6,70.2 24,67 18.3,67 		"/>
		<polygon class="st9" points="37.7,60.5 58.9,68.6 71.1,70.2 54.4,72.6 36.7,73.8 29.6,70.2 		"/>
		<polygon class="st6" points="46.3,63.8 52.5,44.9 56.7,45.5 64.6,50.7 62.3,57.6 64.6,64.8 57.7,68.1 		"/>
		<polygon class="st2" points="37.4,37.8 48.8,35.9 53.1,37.3 52.5,44.9 46.3,63.8 37.7,60.5 32.1,49.9 27.1,43.2 30.3,42.5 		"/>
		<polygon class="st10" points="61.1,26.2 62.5,29.9 61.4,41.7 66.7,46.7 64.6,50.7 56.7,45.5 52.5,44.9 53.1,37.3 48.8,35.9 
			37.4,37.8 52.8,30.8 57.8,29.3 		"/>
		<polyline class="st11" points="53.1,37.3 57,42.4 61.4,41.7 66.7,46.7 64.6,50.7 56.7,45.5 52.5,44.9 53.1,37.3 		"/>
		<polygon class="st10" points="64.6,64.8 78.5,58.5 94.7,53.5 81.5,67.2 71.1,70.2 58.9,68.6 57.7,68.1 		"/>
		<polygon class="st6" points="61.1,26.2 71.9,26.9 79.7,28.9 83.8,32.4 91,37 95.6,47.9 94.7,53.5 78.5,58.5 64.6,64.8 62.3,57.6 
			64.6,50.7 66.7,46.7 61.4,41.7 62.5,29.9 		"/>
		<polygon class="st9" points="67.8,16.6 51.2,21.1 48.8,21.7 46.3,19.2 46.3,19.2 47.7,18.2 51.5,16.1 61.1,12.4 65.2,14.5 		"/>
		<path class="st4" d="M36.5,12.8c0,0,9.3-6.7,10.4-6.7s15.4,4.6,16.1,5.1c0.7,0.7,4.8,5.4,4.8,5.4s-5.7-3.3-6.7-3.4
			c-1-0.1-13.4,4.9-13.4,4.9l-1.4,1L36.5,12.8z"/>
		<polygon class="st9" points="66.7,46.7 80.1,46.7 87.7,40.7 91.6,40.7 92,39.3 95.6,47.9 94.7,53.5 78.5,58.5 64.6,64.8 
			62.3,57.6 64.6,50.7 		"/>
		<polygon class="st2" points="62.9,11.2 61.1,13.2 67.8,16.6 		"/>
	</g>
	<path class="st12" d="M72.1,22.9l-1.6,37.2c0,0-6.8-4.7-12.8-6.7l-11.2,9.2l-3.7-14.3L24,44.1L72.1,22.9z"/>
	<path class="st13" d="M52.3,51.3c0,0-4.2,6.4-5.7,11.3l11.2-9.2l-2.3-1.7L52.3,51.3z"/>
	<path class="st14" d="M58.4,42.2l-6.1,9.1c0,0,12.4,4.3,18.2,8.8L58.4,42.2z"/>
	<polygon class="st14" points="72.1,22.9 70.5,60.2 58.4,42.2 	"/>
	<polyline class="st14" points="51.8,40.6 72.1,22.9 24.1,44.1 	"/>
	<polygon class="st14" points="55.2,37.8 42.9,48.4 24.1,44.1 	"/>
	<polygon class="st15" points="42.9,48.4 46.5,62.7 52.3,51.3 54.4,48.1 51.3,41.1 	"/>
	<polygon class="st15" points="72.1,22.9 42.9,48.4 52.3,51.3 	"/>
</g>
</svg>
