<?xml version="1.0" encoding="utf-8"?>
<!-- Generator: Adobe Illustrator 23.0.0, SVG Export Plug-In . SVG Version: 6.00 Build 0)  -->
<svg version="1.1" id="Capa_1" xmlns="http://www.w3.org/2000/svg" xmlns:xlink="http://www.w3.org/1999/xlink" x="0px" y="0px"
	 viewBox="0 0 101.7 79.9" style="enable-background:new 0 0 101.7 79.9;" xml:space="preserve">
<style type="text/css">
	.st0{fill:#BCBCBC;stroke:#000000;stroke-width:8;stroke-miterlimit:10;}
	.st1{fill:#D1D1D1;}
	.st2{fill:#DDDDDD;}
	.st3{fill:#E8E8E8;}
	.st4{fill:#E5E5E5;}
	.st5{fill:#BCBCBC;}
	.st6{fill:#EAEAEA;}
	.st7{fill:#C6C6C6;}
	.st8{fill:#AFAFAF;}
	.st9{fill:#9B9B9B;}
	.st10{fill:#AAAAAA;}
</style>
<g id="Capa_1_copia">
	<path class="st0" d="M33.7,18.4c-6.7,4.2-8.4,8.7-8.5,9.5c0,0-6.8,3.4-7.7,4.7c-1,1.2-3.3,3.5-3.3,3.5l-0.8,4.3l0.7,1.1
		c0,0-2.2,0.9-2.7,1.7c-0.4,0.9-0.4,7-0.4,7l2.6,5.4l1.9,2.8l0.6,2.2l3.5,5.9l1.7,0.1l2.4,3l14.2,3l16.4-0.3L70,71l9.8-2.2
		l12.9-12.1l1.1-5.1L91,43.5l0,0l-0.8-2.2l-1.1-3.5L86,32.4l-3.4-1.3L78,27l-8.3-5.8c0,0-3.6-4.6-4.2-5.3
		c-0.6-0.6-13.6-5.5-14.6-5.6c-1-0.1-9.9,5.7-9.9,5.7S40.4,14.2,33.7,18.4z"/>
</g>
<g>
	<polygon class="st1" points="82.6,31.2 86,32.4 89.1,37.8 90.2,41.3 86.4,39.8 80.8,34.9 79,33.1 81.9,30.8 	"/>
	<polygon class="st2" points="69.7,21.3 78,27 82.6,31.2 80.1,33.2 73,31 64.4,30.7 60.4,29.6 49.6,24.8 55.1,22.3 	"/>
	<path class="st3" d="M33.7,43.3l3.8-2.1l3.1-1.9l14.6-5.6l4.6-1.1l3.1-2.7c0,0-1.2-1.9-3.7-2.6c-2.5-0.8-7.3-2.2-7.3-2.2l-11.5,5
		l-6.5,10l-3.2,3.8L33.7,43.3z"/>
	<path class="st4" d="M18.5,48.2l-2.4,12.5l5.2,4.7l5.2,0.3l5,3.3l8-8.5c0,0-3.7-11.3-6.3-13.3c-0.4-2.4-1.3-2.4-1.3-2.4l-1.5-0.9
		L18.5,43L18.5,48.2z"/>
	<path class="st5" d="M49.8,22.5L52,25c0,0-6.6,2.8-9.6,5.1c-2.9,2.5-6.1,6.9-7.8,10.2l-2.2,2.2l-1.6,1.3l5.2-13.3l10.7-7.3
		L49.8,22.5z"/>
	<path class="st6" d="M25.2,27.9c0,0-6.8,3.4-7.7,4.7c-1,1.2-3.3,3.5-3.3,3.5l-0.8,4.3l0.7,1.1c0,0-2.2,0.9-2.7,1.7
		c-0.4,0.9-0.4,7-0.4,7l2.6,5.4l3.7-4.5c0,0,2.2-2.6,3.2-3.1c1-0.5,10.1-4.3,10.1-4.3L29.7,33L25.2,27.9z"/>
	<path class="st2" d="M40.9,16.1c0,0-0.5-1.8-7.2,2.4s-8.4,8.7-8.5,9.5s1.1,0.2,2.6,6.7c1.5,6.5,2.9,9.1,2.9,9.1s4.8-10.6,7.6-13.9
		c2.8-3.3,11.5-7.5,11.5-7.5L40.9,16.1z"/>
	<polygon class="st7" points="19.5,48.9 18.9,52.2 17.8,53.6 16.1,60.6 15.5,58.4 13.6,55.6 16.7,49.9 	"/>
	<polygon class="st7" points="16.1,60.6 19.7,66.5 21.4,66.6 23.8,69.6 38.1,72.6 31.6,68.9 26.6,65.6 21.4,65.3 	"/>
	<polygon class="st8" points="39.6,60.3 58.9,68.9 70,71 54.4,72.3 38.1,72.6 31.6,68.9 	"/>
	<polygon class="st5" points="47.4,63.8 54.2,46.7 58,47.4 65,52.6 62.6,58.9 64.3,65.7 57.7,68.4 	"/>
	<polygon class="st1" points="40.5,39.2 51.1,38.1 55.1,39.6 54.2,46.7 47.4,63.8 39.6,60.3 35,50.2 30.7,43.7 33.7,43.3 	"/>
	<polygon class="st9" points="63,29.8 64.2,33.3 62.5,44.2 67.2,49 65,52.6 58,47.4 54.2,46.7 55.1,39.6 51.1,38.1 40.5,39.2 
		55.2,33.6 59.8,32.5 	"/>
	<polyline class="st10" points="55.1,39.6 58.4,44.6 62.5,44.2 67.2,49 65,52.6 58,47.4 54.2,46.7 55.1,39.6 	"/>
	<polygon class="st9" points="64.3,65.7 77.5,60.6 92.7,56.7 79.8,68.8 70,71 58.9,68.9 57.7,68.4 	"/>
	<polygon class="st5" points="63,29.8 73,31 80.1,33.2 83.7,36.7 90.2,41.3 93.8,51.7 92.7,56.7 77.5,60.6 64.3,65.7 62.6,58.9 
		65,52.6 67.2,49 62.5,44.2 64.2,33.3 	"/>
	<polygon class="st8" points="69.7,21.3 54.1,24.5 51.9,24.9 49.8,22.5 49.8,22.5 51.1,21.7 54.7,19.9 63.7,17 67.5,19.2 	"/>
	<path class="st3" d="M40.9,16.1c0,0,9-5.7,9.9-5.7s14,5,14.6,5.6c0.6,0.7,4.2,5.3,4.2,5.3s-5.1-3.3-6-3.5
		c-0.9-0.1-12.6,3.9-12.6,3.9l-1.3,0.8L40.9,16.1z"/>
	<polygon class="st8" points="67.2,49 79.5,49.7 86.9,44.5 90.5,44.7 91,43.5 93.8,51.7 92.7,56.7 77.5,60.6 64.3,65.7 62.6,58.9 
		65,52.6 	"/>
	<polygon class="st1" points="65.5,16 63.7,17.8 69.7,21.3 	"/>
</g>
</svg>
