<?xml version="1.0" encoding="utf-8"?>
<!-- Generator: Adobe Illustrator 23.0.0, SVG Export Plug-In . SVG Version: 6.00 Build 0)  -->
<svg version="1.1" xmlns="http://www.w3.org/2000/svg" xmlns:xlink="http://www.w3.org/1999/xlink" x="0px" y="0px"
	 viewBox="0 0 101.7 79.9" style="enable-background:new 0 0 101.7 79.9;" xml:space="preserve">
<style type="text/css">
	.st0{fill:#ADADAD;stroke:#000000;stroke-width:3;stroke-miterlimit:10;}
	.st1{fill:#6D6D6D;}
	.st2{fill:#B2B2B2;}
	.st3{fill:#D8D8D8;}
	.st4{fill:#AFAFAF;}
	.st5{fill:#BFBFBF;}
	.st6{fill:#E2E2E2;}
	.st7{fill:#444444;}
	.st8{display:none;}
	.st9{display:inline;}
	.st10{display:inline;fill:#BCBCBC;stroke:#000000;stroke-width:8;stroke-miterlimit:10;}
	.st11{display:inline;fill:#D1D1D1;}
	.st12{display:inline;fill:#DDDDDD;}
	.st13{display:inline;fill:#E8E8E8;}
	.st14{display:inline;fill:#E5E5E5;}
	.st15{display:inline;fill:#BCBCBC;}
	.st16{display:inline;fill:#EAEAEA;}
	.st17{display:inline;fill:#C6C6C6;}
	.st18{display:inline;fill:#AFAFAF;}
	.st19{display:inline;fill:#9B9B9B;}
	.st20{display:inline;fill:#AAAAAA;}
	.st21{fill:#E6E6E6;stroke:#000000;stroke-width:4;stroke-miterlimit:10;}
	.st22{fill:#474747;}
	.st23{fill:#E6E6E6;}
	.st24{fill:#939393;}
</style>
<g id="Capa_3">
	<path class="st0" d="M77.7,28.8c-0.1,0-0.3,0-0.4,0.1c-3.9,0.7-15,6.5-21.7,10.1c2.6-6.4,6.2-15.8,6.8-21.1
		c0.2-1.6,0.1-2.1,0.1-2.1c-0.9,0.8-2.4,3.3-4.1,6.5c-4.9,8.8-10,20.7-10,20.7l0,0c-0.5,1.1-0.8,1.7-0.8,1.7l0,0
		c0,0-1.8,3.8-10.3,1.6c-7.3-1-11.6,7.1-10.9,10.7c0.5,2.6,3.1,3.6,5.5,3.1c4.1-0.8,8.3-5.7,10.4-9.3c1.1-1.5,2-2,3.7-2.8
		c0.6-0.3,1.1-0.4,1.4-0.5c0.5-0.1,0.9,0.2,1,0.7c0,0.4-0.1,1.1-0.4,2.3c-0.8,2.6-4.7,8.2-6.1,9.9s-3.7,5.7-1.1,9.6
		c1.8,2.7,5.9,2.6,7.9,0c1.7-2.1,3.1-6.4,2.1-9.2c-0.6-1.7-2.4-4.1-2-7.2c0.4-3.2,3.4-6.4,3.4-6.4l0,0c0,0,22.7-13,25.3-17.9
		C77.7,28.9,77.7,28.8,77.7,28.8z M28.8,57.2c-1.3-2.2,0.3-5.5,2.9-7.8c0,0,1.6-1.1,2.2-1.4c0.6-0.2,5.3-1.5,5.5,1.7
		C39.8,54.1,31.1,61,28.8,57.2z M47.7,67.9c-1.1,1.8-3.3,2.3-4.6,1.7s-2.6-3.1-0.6-7.3c2.1-4.2,4.2-4.3,4.8-3.8c1.5,1,1.8,2.4,2,4.1
		C49.5,63.9,48.9,66,47.7,67.9z"/>
</g>
<g id="Capa_2">
	<path class="st1" d="M77.7,28.8c0,0-1.4,4.3-26.8,18.8l-1.8-3.4c-0.4-0.7-0.1-1.5,0.6-1.9C54.7,39.5,73.8,29.1,77.7,28.8z"/>
	<path class="st2" d="M77.7,28.8L53.7,43.3c0,0-2.5,1.5-1.3,3.4C55.2,45.1,75.6,33.6,77.7,28.8z"/>
	<path class="st3" d="M77.7,28.8L53.7,43.3c0,0-2.2,1.2-3.5-1.3C50.2,42.1,72.6,29.3,77.7,28.8z"/>
	<path class="st4" d="M62.5,15.8c0,0,1.4,4.3-10.2,31.1l-4.7-2.3C47.6,44.6,59.1,18.8,62.5,15.8z"/>
	<circle cx="50.7" cy="44.4" r="0.6"/>
	<path class="st5" d="M62.5,15.8l-10.6,26c0,0-1.1,2.6,1,3.6C54.2,42.4,63.1,22.3,62.5,15.8z"/>
	<path class="st6" d="M62.5,15.8l-10.6,26c0,0-1.1,2.3-3.6,1.1C48.4,42.9,56.8,23.1,62.5,15.8z"/>
	<path class="st7" d="M52.3,46.9l-2.2-1.1l-2.5-1.2c0,0-1.8,3.8-10.3,1.6c-7.3-1-11.6,7.1-10.9,10.7c0.5,2.6,3.1,3.6,5.5,3.1
		c4.1-0.8,8.3-5.7,10.4-9.3c1.1-1.5,2-2,3.7-2.8c0.6-0.3,1.1-0.4,1.4-0.5c0.5-0.1,0.9,0.2,1,0.7c0,0.4-0.1,1.1-0.4,2.3
		c-0.8,2.6-4.7,8.2-6.1,9.9s-3.7,5.7-1.1,9.6c1.8,2.7,5.9,2.6,7.9,0c1.7-2.1,3.1-6.4,2.1-9.2c-0.6-1.7-2.4-4.1-2-7.2
		C49.3,50.2,52.3,46.9,52.3,46.9z M28.8,57.2c-1.3-2.2,0.3-5.5,2.9-7.8c0,0,1.6-1.1,2.2-1.4c0.6-0.2,5.3-1.5,5.5,1.7
		C39.8,54.1,31.1,61,28.8,57.2z M47.7,67.9c-1.1,1.8-3.3,2.3-4.6,1.7s-2.6-3.1-0.6-7.3c2.1-4.2,4.2-4.3,4.8-3.8c1.5,1,1.8,2.4,2,4.1
		C49.5,63.9,48.9,66,47.7,67.9z"/>
</g>
<g id="Capa_1" class="st8">
	<g>
		
			<image style="display:inline;overflow:visible;enable-background:new    ;" width="480" height="462" xlink:href="C:\Users\mriba\Desktop\d0dea3c798358daf3dd60ba12b9e5e75.jpg"  transform="matrix(0.4549 0.144 -0.144 0.4549 -14.7935 -74.8255)">
		</image>
	</g>
	<g class="st9">
		<g id="Capa_1_copia" class="st8">
			<path class="st10" d="M28.1,15c-7.2,5.1-8.8,10.2-8.9,11.1c0,0-7.3,4.2-8.3,5.7c-1,1.4-3.4,4.1-3.4,4.1l-0.6,4.8l0.9,1.2
				c0,0-2.4,1.1-2.9,2.1c-0.4,1,0,7.8,0,7.8l3.2,5.8l2.3,3l0.8,2.4l4.3,6.3h1.9l2.9,3.2l16,2.4l18.2-1.3l17.2-2.4l10.8-3.1
				l13.6-14.2l0.9-5.7l-3.7-8.9l0,0l-1-2.4l-1.4-3.8l-3.8-5.8l-3.9-1.2l-5.3-4.3l-9.6-5.9c0,0-4.3-4.9-5-5.6C62.6,9.7,47.8,5,46.7,5
				C45.6,5,36,11.9,36,11.9S35.3,9.9,28.1,15z"/>
		</g>
		<g class="st8">
			<polygon class="st11" points="83.2,26.1 87.1,27.3 90.9,33.1 92.3,36.9 88,35.5 81.5,30.4 79.4,28.5 82.5,25.8 			"/>
			<polygon class="st12" points="68.3,15.9 77.9,21.8 83.2,26.1 80.6,28.5 72.6,26.5 63,26.7 58.5,25.8 46.2,21.1 52.1,18 			"/>
			<path class="st13" d="M29.6,42.6l4.1-2.6l3.3-2.3l15.9-7.1l5.1-1.5l3.3-3.2c0,0-1.5-2-4.3-2.7s-8.3-2-8.3-2l-12.5,6.3L29.6,39
				l-3.3,4.4L29.6,42.6z"/>
			<path class="st14" d="M13.1,49l-1.9,14l6.1,4.9h5.8l5.8,3.3l8.4-10c0,0-4.8-12.3-7.8-14.4c-0.6-2.6-1.6-2.6-1.6-2.6l-1.7-0.9
				H12.7L13.1,49z"/>
			<path class="st15" d="M46.2,18.5l2.6,2.7c0,0-7.2,3.5-10.4,6.3c-3.1,3-6.3,8-8,11.8l-2.3,2.6l-1.7,1.5l4.9-15.1l11.4-8.8
				L46.2,18.5z"/>
			<path class="st16" d="M19.2,26.1c0,0-7.3,4.2-8.3,5.7c-1,1.4-3.4,4.1-3.4,4.1l-0.6,4.8l0.9,1.2c0,0-2.4,1.1-2.9,2.1
				c-0.4,1,0,7.8,0,7.8l3.2,5.8l3.8-5.2c0,0,2.3-3,3.4-3.6s11-5.4,11-5.4l-1.7-12L19.2,26.1z"/>
			<path class="st12" d="M36,11.9c0,0-0.7-2-7.9,3.1s-8.8,10.2-8.9,11.1c-0.1,0.9,1.2,0.2,3.3,7.3s3.8,9.9,3.8,9.9
				s4.7-12.1,7.6-15.9s12.3-9,12.3-9L36,11.9z"/>
			<polygon class="st17" points="14.2,49.7 13.7,53.5 12.6,55.1 11.2,63 10.4,60.6 8.1,57.6 11.1,51 			"/>
			<polygon class="st17" points="11.2,63 15.5,69.3 17.4,69.3 20.3,72.5 36.3,74.9 28.9,71.2 23.1,67.9 17.3,67.9 			"/>
			<polygon class="st18" points="37.3,61.2 59.2,69.5 71.7,71.2 54.5,73.6 36.3,74.9 28.9,71.2 			"/>
			<polygon class="st15" points="46.2,64.6 52.6,45.1 56.9,45.7 65,51 62.7,58.2 65,65.6 57.9,69 			"/>
			<polygon class="st11" points="37,37.7 48.7,35.8 53.2,37.2 52.6,45.1 46.2,64.6 37.3,61.2 31.5,50.2 26.3,43.3 29.6,42.6 			"/>
			<polygon class="st19" points="61.4,25.8 62.9,29.6 61.7,41.8 67.2,46.9 65,51 56.9,45.7 52.6,45.1 53.2,37.2 48.7,35.8 37,37.7 
				52.9,30.5 58,29 			"/>
			<polyline class="st20" points="53.2,37.2 57.2,42.5 61.7,41.8 67.2,46.9 65,51 56.9,45.7 52.6,45.1 53.2,37.2 			"/>
			<polygon class="st19" points="65,65.6 79.4,59.1 96.1,53.9 82.5,68.1 71.7,71.2 59.2,69.5 57.9,69 			"/>
			<polygon class="st15" points="61.4,25.8 72.6,26.5 80.6,28.5 84.8,32.2 92.3,36.9 97,48.2 96.1,53.9 79.4,59.1 65,65.6 
				62.7,58.2 65,51 67.2,46.9 61.7,41.8 62.9,29.6 			"/>
			<polygon class="st18" points="68.3,15.9 51.2,20.5 48.7,21.1 46.2,18.5 46.2,18.5 47.6,17.5 51.5,15.3 61.4,11.5 65.7,13.7 			
				"/>
			<path class="st13" d="M36,11.9c0,0,9.6-6.9,10.7-6.9s15.9,4.7,16.6,5.3c0.7,0.7,5,5.6,5,5.6s-5.9-3.4-6.9-3.5s-13.8,5.1-13.8,5.1
				l-1.4,1L36,11.9z"/>
			<polygon class="st18" points="67.2,46.9 81,46.9 88.9,40.7 92.9,40.7 93.3,39.3 97,48.2 96.1,53.9 79.4,59.1 65,65.6 62.7,58.2 
				65,51 			"/>
			<polygon class="st11" points="63.3,10.3 61.4,12.4 68.3,15.9 			"/>
		</g>
		<path class="st21" d="M72.8,22.4l-1.7,38.4c0,0-7-4.9-13.2-6.9l-11.6,9.5l-3.8-14.8l-19.4-4.4L72.8,22.4z"/>
		<path class="st22" d="M52.3,51.7c0,0-4.3,6.6-5.9,11.7L58,53.9l-2.4-1.8L52.3,51.7z"/>
		<path class="st23" d="M58.6,42.3l-6.3,9.4c0,0,12.8,4.4,18.8,9.1L58.6,42.3z"/>
		<polygon class="st23" points="72.8,22.4 71.1,60.8 58.6,42.3 		"/>
		<polyline class="st23" points="51.8,40.6 72.8,22.4 23.2,44.2 		"/>
		<polygon class="st23" points="55.3,37.7 42.6,48.7 23.2,44.2 		"/>
		<polygon class="st24" points="42.6,48.7 46.4,63.4 52.3,51.7 54.5,48.4 51.3,41.1 		"/>
		<polygon class="st24" points="72.8,22.4 42.6,48.7 52.3,51.7 		"/>
	</g>
</g>
</svg>
